# xmcd CD database file
#
# Track frame offsets:
#	150
#	18500
#	32902
#	50215
#	61813
#	79913
#	93740
#	127003
#	137726
#	151389
#	168226
#	187090
#	200731
#	211668
#	229157
#	246521
#	258211
#	271657
#
# Disc length: 3811 seconds
#
# Revision: 0
# Processed by: cddbd v1.5.2PL0 Copyright (c) Steve Scherf et al.
# Submitted via: CDex 1.51
#
DISCID=080ee112
DTITLE=Campbell,Glen - Live
DYEAR=1969
DGENRE=Country
TTITLE0=More/Somewhere
TTITLE1=White Lighning
TTITLE2=Didn´t We
TTITLE3=Dreams Of The Everyday Housewife
TTITLE4=Gotta Travel  On
TTITLE5=(Sittin On) The dock Of The Bay
TTITLE6=If You Go Away/Introduction
TTITLE7=Walk Right In
TTITLE8=The Impossible Dream
TTITLE9=Gentle On My Mind
TTITLE10=Where´s The Playgorund, Susie?
TTITLE11=Mountain Dew
TTITLE12=You All Come
TTITLE13=By The Time I Get To Phoenix
TTITLE14=For Once In My Life
TTITLE15=It´s Over
TTITLE16=Yakity Sax
TTITLE17=Lord´s Prayer
EXTD=YEAR: 1969
EXTT0=
EXTT1=
EXTT2=
EXTT3=
EXTT4=
EXTT5=
EXTT6=
EXTT7=
EXTT8=
EXTT9=
EXTT10=
EXTT11=
EXTT12=
EXTT13=
EXTT14=
EXTT15=
EXTT16=
EXTT17=
PLAYORDER=
